<?xml version="1.0" standalone="no"?>
<!DOCTYPE svg PUBLIC "-//W3C//DTD SVG 20010904//EN" "http://www.w3.org/TR/2001/REC-SVG-20010904/DTD/svg10.dtd">
<svg version="1.0" xmlns="http://www.w3.org/2000/svg"
 width="488.000000pt" height="360.000000pt" viewBox="0 0 488.000000 360.000000"
 preserveAspectRatio="xMidYMid meet">

<g transform="translate(0.000000,360.000000) scale(0.100000,-0.100000)"
fill="#243c3c" stroke="none">
<path d="M2466 3363 c-3 -82 -9 -683 -12 -1338 -6 -1053 -4 -1216 10 -1415 20
-262 44 -483 57 -516 l9 -24 313 0 c173 0 316 2 318 5 3 2 -8 118 -23 257 -54
498 -105 1094 -94 1105 9 9 200 -47 317 -93 311 -121 579 -294 810 -524 194
-193 339 -405 436 -638 l48 -112 77 0 c43 0 78 4 78 9 0 5 -20 60 -45 123
-110 273 -285 530 -516 753 -232 226 -504 400 -814 523 -86 34 -294 98 -376
116 -26 6 -26 7 -32 118 -24 428 -47 1054 -47 1259 l0 135 -167 134 c-93 74
-205 165 -250 202 -45 37 -84 68 -86 68 -3 0 -7 -66 -11 -147z"/>
<path d="M2246 3478 c-2 -7 -7 -119 -10 -248 -4 -129 -11 -397 -16 -595 -6
-198 -14 -524 -20 -725 -5 -201 -16 -536 -24 -745 -8 -209 -17 -504 -20 -655
-4 -151 -9 -310 -12 -353 l-6 -77 55 0 55 0 6 182 c4 101 11 377 16 613 18
840 30 1326 45 1775 9 250 16 541 16 645 l1 190 -41 3 c-27 2 -43 -1 -45 -10z"/>
<path d="M1890 1605 c-153 -33 -250 -61 -385 -112 -627 -237 -1119 -691 -1360
-1257 -25 -61 -49 -123 -52 -138 l-6 -29 77 3 76 3 48 110 c237 549 749 1000
1364 1199 86 28 255 70 366 92 20 4 22 10 22 79 0 89 10 85 -150 50z"/>
</g>
</svg>
